<?xml version="1.0" encoding="utf-8"?>
<!-- Generator: Adobe Illustrator 16.0.0, SVG Export Plug-In . SVG Version: 6.00 Build 0)  -->
<!DOCTYPE svg PUBLIC "-//W3C//DTD SVG 1.1//EN" "http://www.w3.org/Graphics/SVG/1.1/DTD/svg11.dtd">
<svg version="1.1" id="ae7ad495-543d-4c4b-9483-8059c5566fe6"
	 xmlns="http://www.w3.org/2000/svg" xmlns:xlink="http://www.w3.org/1999/xlink" x="0px" y="0px" width="1009.54px"
	 height="839.64px" viewBox="0 0 1009.54 839.64" enable-background="new 0 0 1009.54 839.64" xml:space="preserve">
<title>personalization</title>
<path opacity="0.1" fill="#48489D" enable-background="new    " d="M586.549,111.4c-64.719-2.25-126.359-23.14-185.219-46
	S284.17,17.21,221,5.1c-40.63-7.79-87.1-8.89-119.83,12.89c-31.51,21-41.69,57.15-47.16,90.729c-4.12,25.26-6.54,51.85,4.74,75.49
	c7.84,16.42,21.74,30.22,31.36,45.95c33.47,54.72,9.81,122.2-26.45,175.63c-17,25.071-36.75,49-49.88,75.661
	c-13.13,26.66-19.2,57.25-7.71,84.469c11.38,27,38.51,47.24,67.9,61.49c59.69,28.951,130,37.23,198.61,41.92
	c151.83,10.391,304.459,5.891,456.69,1.391c56.34-1.67,112.92-3.359,168.34-12.07c30.779-4.84,62.551-12.51,84.9-31.051
	c28.359-23.529,35.391-63.369,16.379-92.879c-31.879-49.49-120-61.779-142.309-114.89c-12.26-29.24,0.33-61.8,18.16-88.92
	c38.24-58.16,102.33-109.19,105.699-175.67c2.32-45.66-28.49-91.39-76.131-113c-49.93-22.64-119.18-19.8-156,17.69
	C710.36,98.53,643.7,113.38,586.549,111.4z"/>
<ellipse opacity="0.1" fill="#38D39F" enable-background="new    " cx="483.49" cy="780.991" rx="303.969" ry="41.12"/>
<path fill="#3E55A5" d="M333.01,658.57c0,0,21-3.359,33.601,11.48c0,0-9.24,7.279-29.12-2.801L333.01,658.57z"/>
<path fill="#3E55A5" d="M330.77,658.24c0,0-13.399,16.58-6.829,34.85c0,0,10.92-4.369,12.109-26.629L330.77,658.24z"/>
<path fill="#3E55A5" d="M318.77,631.13c0,0,8.4-15.4,42,6.16c0,0-4.479,10.359-19.319,9.52S322.64,639.25,318.77,631.13z"/>
<path fill="#3E55A5" d="M316.56,630.021c0,0-17.43-2-19.12,37.898c0,0,11.05,2.301,18.9-10.33
	C324.19,644.96,320.94,637.9,316.56,630.021z"/>
<path fill="#3E55A5" d="M306.4,598.201c0,0,9.8-27.17,45.369-7.852c0,0-8.119,24.932-41.729,17.092L306.4,598.201z"/>
<path fill="#3E55A5" d="M295.48,557.589c0,0,18.48-27.439,51.25-2c0,0-11.48,25.76-48.45,11.76L295.48,557.589z"/>
<path fill="#3E55A5" d="M291.56,518.951c0,0,21.56-25.201,54,0c0,0-20.449,22.119-54,6.439V518.951z"/>
<path fill="#3E55A5" d="M288.2,481.429c0,0,21.84-26.33,52.93-1.398c0,0-24.649,23.24-52.93,7.559V481.429z"/>
<path fill="#3E55A5" d="M290.16,448.099c0,0,23-33.879,52.09-10.92c0,0-24.65,29.131-52.09,17.361V448.099z"/>
<path fill="#3E55A5" d="M295.48,409.18c0,0,24.36-33.6,52.65-7.84c0,0-28.85,29.121-52.65,14V409.18z"/>
<path fill="#3E55A5" d="M303.61,374.39c0,0,28.83-31.57,54-19c0,0-30.061,33.53-55.261,27.37L303.61,374.39z"/>
<path fill="#3E55A5" d="M313.68,341.42c0,0,33.33-38.65,52.65-25.77c0,0-24.521,30-55,33.05L313.68,341.42z"/>
<path fill="#3E55A5" d="M328.23,303.16c0,0,29.14-31.58,50.42-23.74c0,0-24.92,32.77-54.33,33.61L328.23,303.16z"/>
<path fill="#3E55A5" d="M341.41,267.38c0,0,32.2-30.24,46.2-24.92c0,0-23.24,33.6-47.601,31.64L341.41,267.38z"/>
<path fill="#38D39F" d="M354.29,234.34c0,0,27.72-36.12,42.84-33.32c0,0-16.8,32.2-42.84,37V234.34z"/>
<path fill="#38D39F" d="M368.26,189.82c0,0,24.51-27.7,37.74-27.63c0,0-19.34,37-38.74,36.66L368.26,189.82z"/>
<path fill="#3E55A5" d="M376.55,160.13l23.66-57.68c0,0,1.19,52.14-26.68,68.38L376.55,160.13z"/>
<path fill="#3E55A5" d="M386.15,96.52c0,0,3.92-48.16,1.399-52.08c0,0,16.931,40-1.56,73.36L386.15,96.52z"/>
<path fill="#3E55A5" d="M305.49,597.55c0,0-24.55-15.211-40.43,22c0,0,21.84,14.5,43.31-12.51L305.49,597.55z"/>
<path fill="#3E55A5" d="M294.7,556.041c0,0-30.1-13.73-44.71,25.119c0,0,23.26,16,47.45-15.299L294.7,556.041z"/>
<path fill="#3E55A5" d="M290.16,521.259c0,0-21.56-25.199-54,0c0,0,20.44,22.121,54,6.441V521.259z"/>
<path fill="#3E55A5" d="M287.47,481.429c0,0-21.85-26.33-52.93-1.398c0,0,24.64,23.24,52.93,7.559V481.429z"/>
<path fill="#3E55A5" d="M290.16,449.06c0,0-15.32-37.95-48.62-21.631c0,0,18,33.66,47.27,27.932L290.16,449.06z"/>
<path fill="#3E55A5" d="M297.41,408.99c0,0-15.22-38.61-49-20.71c0,0,20.68,35.389,47.5,26.68L297.41,408.99z"/>
<path fill="#3E55A5" d="M306.85,374.59c0,0-6-42.34-33.95-46.13c0,0,5.93,44.64,30.22,53.75L306.85,374.59z"/>
<path fill="#3E55A5" d="M314.4,341.49c0,0-2.351-51-25.5-52.77c0,0,0.78,38.7,22.89,60L314.4,341.49z"/>
<path fill="#3E55A5" d="M330.64,301.7c0,0-6.909-42.4-29-47.59c0,0,2.74,41.07,26.811,58L330.64,301.7z"/>
<path fill="#3E55A5" d="M344.03,267.69c0,0-0.24-44.18-13.74-50.67c0,0-8.37,40,9.83,56.31L344.03,267.69z"/>
<path fill="#3E55A5" d="M355.32,233.82c0,0-1.9-45.5-15.87-51.91c0,0-4.79,36,13.77,54.88L355.32,233.82z"/>
<path fill="#3E55A5" d="M370.22,193.42c0,0-0.09-37-10.069-45.68c0,0-9.92,40.54,4.859,53.12L370.22,193.42z"/>
<path fill="#3E55A5" d="M375.37,158.31l-9.7-61.59c0,0-13.2,50.47,10.16,72.7L375.37,158.31z"/>
<path fill="#3E55A5" d="M377.27,97.1c0,0-24.93-41.39-24.409-46c0,0,2.64,43.4,34,65L377.27,97.1z"/>
<path fill="#3E55A5" d="M380.19,84.88c0,0-23.521-58.81-34.16-63.57c0,0,33.6,17.08,36.12,61.89L380.19,84.88z"/>
<path fill="#444053" d="M367.13,199.17l-1.61-0.49c19.851-64.73,24.811-106,13.95-116.34l1.16-1.22
	C392.13,92.03,387.47,132.82,367.13,199.17z"/>
<path fill="#444053" d="M312.47,350.69l-2.37-0.84c2.101-5.93,4.37-11.95,6.75-17.89c20.721-51.64,38.36-99.67,49.67-136.55l2.07-1
	c-11.33,36.95-28.649,86.83-49.399,138.53C316.82,338.82,314.56,344.82,312.47,350.69z"/>
<path fill="#444053" d="M362.56,707.021c-0.319-0.361-32.5-36.58-54.92-98.441c-13.146-36.203-20.471-74.262-21.7-112.76
	c-1.54-48.129,8.56-101.87,25.86-150.68l1.88,2.2c-38.83,109.56-23.399,203.451-2.939,260c22.2,61.291,54,97.131,54.319,97.48
	L362.56,707.021z"/>
<path fill="#3A3768" d="M645.09,289.82h4.279c1.266,0,2.291,1.025,2.291,2.29v68.44c0,1.265-1.025,2.29-2.291,2.29h-4.279
	c-1.266,0-2.291-1.025-2.291-2.29v-68.44C642.799,290.845,643.825,289.82,645.09,289.82z"/>
<path fill="#3A3768" d="M350.66,232.61h0.39c1.265,0,2.29,1.025,2.29,2.29v19.46c0,1.265-1.025,2.29-2.29,2.29h-0.39
	c-1.265,0-2.29-1.025-2.29-2.29V234.9C348.37,233.635,349.396,232.61,350.66,232.61z"/>
<path fill="#3A3768" d="M350.48,276.63h1.02c1.265,0,2.29,1.025,2.29,2.29v37.26c0,1.265-1.025,2.29-2.29,2.29h-1.02
	c-1.266,0-2.29-1.025-2.29-2.29v-37.26C348.19,277.655,349.215,276.63,350.48,276.63z"/>
<path fill="#3A3768" d="M350.57,333.11h0.75c1.265,0,2.29,1.025,2.29,2.29v37.62c0,1.265-1.025,2.29-2.29,2.29h-0.75
	c-1.265,0-2.29-1.025-2.29-2.29V335.4C348.28,334.135,349.306,333.11,350.57,333.11z"/>
<path fill="#3A3768" d="M390.17,153.17h218.42c21.533,0,38.99,17.457,38.99,38.99v524.41c0,21.533-17.457,38.99-38.99,38.99H390.17
	c-21.533,0-38.99-17.457-38.99-38.99V192.16C351.18,170.626,368.637,153.17,390.17,153.17z"/>
<path fill="#3E55A5" d="M605.77,168.82h-34v4.09c0,10.703-8.676,19.38-19.381,19.38c-0.002,0-0.006,0-0.01,0H444.25
	c-10.703,0.005-19.385-8.667-19.39-19.37c0-0.003,0-0.007,0-0.01v-4.09h-31.83c-13.001,0-23.54,10.54-23.54,23.54l0,0v523.97
	c0,13.002,10.539,23.541,23.54,23.541h212.74c13,0,23.539-10.539,23.539-23.541V192.4c0.023-13-10.498-23.558-23.498-23.58
	C605.797,168.82,605.784,168.82,605.77,168.82z"/>
<path fill="#E6E8EC" d="M474.66,171.16h33.649c2.139,0,3.871,1.732,3.871,3.87v0.66c0,2.137-1.732,3.87-3.871,3.87H474.66
	c-2.138,0-3.87-1.733-3.87-3.87v-0.66C470.79,172.893,472.522,171.16,474.66,171.16z"/>
<circle fill="#E6E8EC" cx="523.209" cy="175.36" r="4.77"/>
<path fill="#3E55A5" d="M750.2,126.75c0,0-84.199-5.08-74.279,53.92c0,0-2,10.43,7.48,15.16c0,0,0.148-4.37,8.639-2.88
	c3.023,0.501,6.094,0.648,9.15,0.44c4.123-0.271,8.047-1.875,11.18-4.57l0,0c0,0,23.67-9.78,32.871-48.46
	c0,0,6.809-8.44,6.539-10.61l-14.209,6.07c0,0,4.859,10.25,1,18.77c0,0-0.461-18.4-3.191-18c-0.549,0.08-7.379,3.55-7.379,3.55
	s8.35,17.85,2.049,30.83c0,0,2.391-22-4.66-29.54l-10,5.84c0,0,9.762,18.44,3.141,33.49c0,0,1.701-23.08-5.25-32.07l-9.061,7.07
	c0,0,9.17,18.17,3.58,30.65c0,0-0.729-26.86-5.539-28.89c0,0-7.93,7-9.141,9.86c0,0,6.281,13.2,2.381,20.16c0,0-2.391-17.9-4.35-18
	c0,0-7.9,11.86-8.721,20c0,0,0.34-12.09,6.811-21.12c0,0-7.641,1.31-12.1,6.26c0,0,1.229-8.38,14.049-9.12c0,0,6.529-9,8.27-9.54
	c0,0-12.74-1.07-20.469,2.36c0,0,6.799-7.91,22.809-4.31l8.951-7.31c0,0-16.781-2.29-23.9,0.24c0,0,8.189-7,26.311-1.9l9.74-5.82
	c0,0-14.311-3.08-22.83-2c0,0,9-4.85,25.689,0.41l7-3.13c0,0-10.48-2.06-13.551-2.39c-3.068-0.33-3.229-1.17-3.229-1.17
	c6.639-1.107,13.455-0.349,19.689,2.19C735.67,133.19,750.45,127.68,750.2,126.75z"/>
<path fill="#3E55A5" d="M663.831,100.51c0,0-38-2.29-33.561,24.37c0,0-0.891,4.71,3.381,6.85c0,0,0.068-2,3.908-1.31
	c1.365,0.229,2.752,0.297,4.131,0.2c1.865-0.124,3.639-0.854,5.051-2.08l0,0c0,0,10.699-4.42,14.859-21.9c0,0,3.07-3.81,2.949-4.79
	l-6.42,2.74c0,0,2.191,4.63,0.471,8.48c0,0-0.211-8.31-1.439-8.12c-0.25,0-3.34,1.61-3.34,1.61s3.779,8.07,0.93,13.93
	c0,0,1.08-9.94-2.111-13.35l-4.52,2.68c0,0,4.41,8.33,1.42,15.13c0,0,0.77-10.43-2.369-14.49l-4.09,3.2c0,0,4.139,8.21,1.619,13.85
	c0,0-0.34-12.14-2.51-13.06c0,0-3.58,3.16-4.131,4.46c0,0,2.842,6,1.08,9.11c0,0-1.08-8.09-2-8.13c0,0-3.568,5.36-3.939,9
	c0.18-3.394,1.24-6.683,3.08-9.54c-2.061,0.39-3.961,1.374-5.471,2.83c0,0,0.561-3.79,6.352-4.12c0,0,3-4.07,3.74-4.32
	c0,0-5.762-0.48-9.25,1.07c0,0,3.068-3.57,10.299-1.95l4-3.3c0,0-7.59-1-10.799,0.11c0,0,3.699-3.16,11.889-0.86l4.4-2.63
	c0,0-6.471-1.39-10.32-0.89c0,0,4.07-2.19,11.611,0.18l3.148-1.41c0,0-4.74-0.93-6.129-1.08c-1.391-0.15-1.461-0.53-1.461-0.53
	c3.002-0.5,6.084-0.153,8.9,1C657.19,103.45,663.95,100.93,663.831,100.51z"/>
<rect x="395.91" y="226.18" opacity="0.1" fill="#807CBA" stroke="#9C92C6" stroke-miterlimit="10" enable-background="new    " width="206.95" height="439.239"/>
<linearGradient id="SVGID_1_" gradientUnits="userSpaceOnUse" x1="482.8584" y1="174.6978" x2="689.73" y2="174.6978" gradientTransform="matrix(1 0 0 -1 -86.8901 785.499)">
	<stop  offset="0" style="stop-color:#808080;stop-opacity:0.25"/>
	<stop  offset="0.54" style="stop-color:#808080;stop-opacity:0.12"/>
	<stop  offset="1" style="stop-color:#808080;stop-opacity:0.1"/>
</linearGradient>
<path fill="url(#SVGID_1_)" d="M596.52,788.041c0,0-4.881-11.361-7.061-16.6c-1.229-3-3.309-3.5-4.9-3.432l0.092-1l0.389-4.729
	l0.08-1c3.77-0.791,7-1.41,7-1.41l-2.35-121.32c0,0-1-1.281-3.42-9c-1.199-3.85-7-8.58-12.42-12.35c-0.85-0.59-1.68-1.15-2.5-1.691
	c1.973-1.652,4.047-3.182,6.209-4.58c3.08-1.789,4.102-12,4.102-12l-0.51,1c0.51-1,0-27.068,0-27.068L579.43,545.8
	c0,0-1.279-32.17-11.279-40.6S545.52,493.82,545.52,493.82l-7-1.799l0,0l-12.9-3.311c-0.359-0.59-0.709-1.211-1-1.861
	c-0.129-0.25-0.25-0.51-0.369-0.77c7.996-5.662,12.75-14.852,12.75-24.65c0.002-1.621-0.129-3.238-0.391-4.84
	c0-0.299-0.109-0.609-0.17-0.91c1.061-0.725,2.063-1.531,3-2.408c1.527-1.219,2.775-2.75,3.66-4.49l0,0
	c0.139-0.342,0.252-0.693,0.34-1.051c0-0.1,0-0.199,0.061-0.311c0.059-0.109,0.09-0.529,0.119-0.799c0-0.1,0-0.201,0-0.301
	c0-0.289,0-0.59,0-0.879c0-0.07,0-0.141,0-0.221c0-0.33-0.049-0.66-0.1-1c0.004-0.02,0.004-0.041,0-0.061l0,0
	c-0.184-1.16-0.484-2.301-0.9-3.4c-1-2.58-2.299-5-2.77-7.75c-0.58-3.25,0.09-6.799-1.461-9.719c-1.303-2.236-3.535-3.772-6.09-4.19
	c-2.537-0.392-5.135-0.095-7.52,0.86c-1.166,0.555-2.424,0.893-3.709,1c-0.938-0.055-1.855-0.278-2.711-0.661
	c-2.969-1.165-5.789-2.679-8.4-4.51c-1.879-1.482-3.887-2.794-6-3.92c-2.149-1.122-4.688-1.225-6.92-0.28
	c-3.7,1.88-4.4,7.12-7.84,9.431c-2.37,1.6-5.46,1.439-8.32,1.539s-6.1,0.811-7.51,3.289c-1,1.721-0.761,3.771-0.57,5.781l0.06,0.68
	c0,0.24,0,0.49,0.061,0.73c0.157,2.57-0.228,5.146-1.13,7.559c-1.38,3.66-4,7.271-3.91,11l0,0c0.008,0.594,0.085,1.186,0.229,1.762
	c0.079,0.287,0.172,0.57,0.28,0.85l0,0c0.551,1.236,1.168,2.441,1.851,3.609l0.09,0.16c0.069,0.141,0.14,0.279,0.2,0.42
	c0.06,0.141,0.18,0.381,0.25,0.57c0.069,0.189,0.079,0.189,0.109,0.279s0.13,0.371,0.18,0.561c0.165,0.564,0.236,1.152,0.211,1.74
	c-0.118,0.758-0.182,1.523-0.19,2.289c0.007,0.791,0.565,1.471,1.34,1.631c0.413-0.01,0.814-0.135,1.16-0.359
	c0.897-0.512,1.75-1.098,2.55-1.75c0,0.318,0,0.639,0.061,1c0.696,7.156,3.918,13.832,9.09,18.83c0,0.309,0,0.629-0.07,1
	c-0.07,0.369-0.05,0.719-0.07,1.09l0,0l-11.199,3.52c0,0,0.06,0.199,0.18,0.539l-1.18,0.471l0,0c-5.811,2.35-12.28,5.27-15.9,7.92
	c-1.6,1.16-3.06,2.109-4.37,2.9c-4.756,2.91-8.403,7.328-10.36,12.549l-0.149,0.381c-1,2.289-5.9,17.869-5.9,17.869
	s-3.59,8.682-4.109,14.301c0,0-5.9,18.631-4.36,30.891c0,0-4.62,17.619-2.82,20.42c0,0-1.84,7.58,6.24,15.209
	c-0.59,0.361-1.229,0.75-1.9,1.18c-6.26,3.941-15.29,10.33-16.829,15.262c-2.391,7.67-3.421,9-3.421,9L406.65,758.82
	c0,0,3.229,0.621,7,1.4l0.08,1l0.39,4.721l0.09,1c-1.59-0.07-3.67,0.479-4.9,3.439c-2.189,5.23-7,16.58-7,16.58
	s-10.77,10-4.239,19.279c0.287,0.424,0.623,0.813,1,1.16c4.689,4.26,14.689,1.529,21.8-1.25c3.613-1.541,6.729-4.055,9-7.26
	c0.579-0.76,1.449-1.24,2.4-1.33c1.63-0.264,3.168-0.934,4.47-1.949c1.591-1.162,2.511-3.031,2.46-5
	c-0.005-0.051-0.005-0.102,0-0.15l-0.63-14.23c0,0-0.771-9.939-3.221-9.301l-0.63,0.15l-0.17-1l0,0l-0.33-1.93l-0.17-1h1.36
	c0,0,0.34-11.24,4.45-20.08c4.109-8.84,6.81-80.25,6.81-80.25s50.87,0.83,52.57-3.939l0,0c1,0,2.09,0,3.13-0.07
	c1.71,4.77,49.72,5,49.72,5s2.73,71.49,6.83,80.34c0.865,1.896,1.584,3.855,2.15,5.859l0,0c1.289,4.639,2.064,9.404,2.309,14.211
	h1.361l-0.18,1l-0.33,1.92l-0.17,1l-0.65-0.15c-2.43-0.629-3.201,9.311-3.201,9.311l-0.648,14.32c-0.104,1.961,0.791,3.842,2.379,5
	c1.324,1.039,2.889,1.727,4.551,2c0.951,0.076,1.824,0.557,2.398,1.32c2.275,3.201,5.389,5.715,9,7.26
	c7.682,3,18.721,5.93,22.82,0.1C607.29,798,596.52,788.041,596.52,788.041z M467.22,609.701L467.22,609.701h0.12H467.22z
	 M547.571,568.82c0,0,1.289,4.85,3.59,7.4c2.299,2.551,1.16,18.391,1.16,18.391c-0.906,0.057-1.803,0.201-2.682,0.43
	C547.87,584.509,546.241,572.82,547.571,568.82z"/>
<polygon fill="#8E6F7F" points="436.96,768.429 416.85,770.429 416.29,763.701 415.9,759.07 415.35,752.3 434.35,753.3 
	435.86,761.99 436.18,763.88 436.19,763.88 "/>
<polygon fill="#8E6F7F" points="583.411,753.31 582.86,760.07 582.481,764.701 581.911,771.429 561.79,769.429 562.59,764.88 
	562.901,763 564.411,754.31 "/>
<path fill="#5F5570" d="M562.1,655.919l-59.8,2.811c-2.72,0.133-5.439,0.133-8.16,0l-57.13-2.801v-45.26H562.1V655.919z"/>
<path opacity="0.1" enable-background="new    " d="M562.1,655.919l-59.8,2.811c-2.72,0.133-5.439,0.133-8.16,0l-57.13-2.801v-45.26
	H562.1V655.919z"/>
<path fill="#EAEAF2" d="M485.52,488.73c0,0-19.92,6.689-27.42,12.189c-1.56,1.141-3,2.08-4.26,2.85
	c-4.632,2.857-8.177,7.18-10.07,12.281c-0.05,0.141-0.1,0.26-0.149,0.369c-1,2.25-5.75,17.5-5.75,17.5s-3.5,8.5-4,14
	s28.5,20.25,28.5,20.25s-14,30.5-7.75,38.25s97.5,11.5,95.5,0s-5.5-30.5-3.75-35.75l31-22.5c0,0-1.25-31.5-11-39.75
	s-22-11.25-22-11.25l-19.41-5c0,0-6.84,17-14.34,19.25C503.12,513.669,486.69,503.281,485.52,488.73z"/>
<path opacity="0.1" enable-background="new    " d="M513.5,517.361c0,0-8.46,7.059-12.901,0c0,0-4,11.939,0,15.939l-0.149,0.811
	l-0.71,3.559l-9.261,77l7.62,13.15l13.87-17.4l-1.119-72l-0.5-4.129l-0.119-1h2.369C512.6,533.291,518.889,522.419,513.5,517.361z"
	/>
<path opacity="0.1" enable-background="new    " d="M515.5,517.361c0,0-8.461,7.059-12.901,0c0,0-4,11.939,0,15.939l-0.149,0.811
	l-0.71,3.559l-9.261,77l7.62,13.15l13.87-17.4l-1.119-72l-0.5-4.129l-0.119-1h2.369C514.6,533.291,520.889,522.419,515.5,517.361z"
	/>
<polygon fill="#BC8487" points="512.969,609.429 499.1,626.8 491.46,613.72 500.73,536.679 501.44,533.121 501.6,532.3 
	502.85,529.06 511.231,532.3 511.35,533.3 511.85,537.429 "/>
<path opacity="0.1" enable-background="new    " d="M435.86,761.98c-4.315-0.027-8.618-0.467-12.851-1.311
	c-2.09-0.52-4.71-1.1-7.1-1.609l-0.561-6.77l19,1L435.86,761.98z"/>
<path fill="#5F5570" d="M499.25,658.82c-1.66,4.67-51.24,3.85-51.24,3.85s-2.66,70-6.66,78.67S437.01,761,437.01,761
	s-8.66,0-14-1.33s-14-3-14-3l2.34-118.75c0,0,1-1.25,3.33-8.76c1.5-4.83,10.3-11.09,16.391-15c3.399-2.141,5.939-3.539,5.939-3.539
	l29.58,1.199l18.26,0.74C484.85,612.56,500.92,654.15,499.25,658.82z"/>
<path opacity="0.1" enable-background="new    " d="M436.97,768.419l-20.12,2l-0.569-6.729c0.753,0.02,1.496,0.184,2.189,0.479
	c3.67,2.641,14.16,0.541,17.71-0.299l0,0L436.97,768.419z"/>
<path fill="#BC8487" d="M440.77,787.871c0.049,1.926-0.853,3.754-2.409,4.889c-1.267,0.994-2.763,1.65-4.351,1.91
	c-0.927,0.08-1.775,0.553-2.33,1.301c-2.223,3.135-5.268,5.596-8.8,7.109c-6.93,2.721-16.68,5.391-21.25,1.221
	c-0.377-0.336-0.713-0.715-1-1.131c-6.37-9.119,4.13-18.879,4.13-18.879s4.74-11.121,6.87-16.24
	c0.904-2.609,3.752-3.992,6.361-3.088c0.173,0.059,0.343,0.129,0.509,0.207c4,2.881,16.13,0.121,18.5-0.49
	c2.37-0.609,3.13,9.111,3.13,9.111l0.64,13.93C440.765,787.769,440.765,787.82,440.77,787.871z"/>
<path opacity="0.1" enable-background="new    " d="M583.42,753.3l-0.561,6.76c-2.391,0.51-5,1.09-7.109,1.609
	c-4.229,0.846-8.527,1.287-12.84,1.32l1.51-8.689L583.42,753.3z"/>
<path fill="#5F5570" d="M589.77,757.669c0,0-8.66,1.67-14,3s-14,1.33-14,1.33s-0.33-11-4.33-19.66s-6.67-78.67-6.67-78.67
	s-46.78-0.27-48.45-4.939s20.389-45,20.389-45l13.451-0.699l25.609-1.361c0,0,5,2.721,10.24,6.391s10.93,8.33,12.1,12.1
	c2.33,7.51,3.33,8.76,3.33,8.76L589.77,757.669z"/>
<path opacity="0.1" enable-background="new    " d="M582.481,764.691l-0.561,6.729l-20.131-2l0.801-4.549
	c3.549,0.85,14,2.939,17.699,0.299C580.983,764.875,581.727,764.71,582.481,764.691z"/>
<path fill="#BC8487" d="M580.29,766.169c2.492-1.189,5.477-0.133,6.666,2.359c0.082,0.17,0.152,0.344,0.215,0.521
	c2.119,5.119,6.869,16.25,6.869,16.25s10.5,9.75,4.131,18.869c-4,5.721-14.76,2.85-22.24-0.09c-3.535-1.508-6.582-3.971-8.801-7.109
	c-0.557-0.748-1.408-1.223-2.34-1.301c-1.625-0.283-3.15-0.971-4.439-2c-1.537-1.137-2.404-2.969-2.311-4.879l0.631-14
	c0,0,0.75-9.73,3.119-9.121C564.161,766.281,576.29,769.05,580.29,766.169z"/>
<path fill="#FFC4D0" d="M528.6,497.169l-20.189,21.4l-0.561,0.6l-0.73-0.43c-4.219-2.5-25.33-15.24-23.52-19.07
	c1-2.18,1.591-6.719,1.9-10.629c0-0.471,0.06-0.93,0.1-1.381c0.2-3.09,0.25-5.49,0.25-5.49s38-6.5,36.5,0
	c-0.609,2.631,0.301,5.59,1.59,8.18c0.381,0.75,0.801,1.461,1.211,2.131C526.161,494.142,527.315,495.71,528.6,497.169z"/>
<path opacity="0.1" enable-background="new    " d="M523.94,490.349c-11.709,8.631-27.95,7.49-38.34-2.689
	c0.2-3.09,0.25-5.49,0.25-5.49s38-6.5,36.5,0C521.77,484.82,522.651,487.759,523.94,490.349z"/>
<path fill="#FFC4D0" d="M536.01,465.46c0.232,16.385-12.859,29.855-29.244,30.09c-15.619,0.223-28.734-11.701-29.997-27.27
	c-0.079-0.934-0.119-1.875-0.119-2.82c-0.301-16.385,12.737-29.908,29.12-30.209c16.385-0.301,29.91,12.736,30.211,29.121
	c0.006,0.361,0.006,0.725,0,1.088H536.01z"/>
<path opacity="0.1" enable-background="new    " d="M535.639,460.72c-1.561,1.271-3.59,1.82-5.58,1.51c-4.578-1-6.148-8-10.828-8.48
	c-4.682-0.48-7.791,6-12.531,5.871c-2-0.051-3.799-1.361-5.64-2.271c-3.22-1.59-8.52-2.559-12-1.359
	c-5.229,1.791-7,6.631-10.34,10.48c-0.57,0.656-1.196,1.262-1.87,1.811c-0.08-0.934-0.12-1.875-0.12-2.82
	c-0.148-16.387,13.015-29.789,29.4-29.938c14.762-0.135,27.377,10.604,29.6,25.197H535.639z"/>
<path fill="#8E6F7F" d="M501.06,456.361c1.841,0.898,3.601,2.219,5.64,2.27c4.73,0.119,7.82-6.391,12.52-5.881
	c4.701,0.51,6.25,7.451,10.852,8.48c3.09,0.699,6-1.609,8.309-3.76c1.494-1.189,2.711-2.688,3.57-4.391
	c1-2.48,0.48-5.34-0.449-7.859s-2.24-4.939-2.701-7.59c-0.559-3.18,0.09-6.66-1.42-9.52c-1.264-2.189-3.445-3.693-5.939-4.102
	c-2.473-0.383-5.004-0.096-7.33,0.83c-1.133,0.551-2.355,0.889-3.609,1c-0.916-0.055-1.813-0.275-2.65-0.648
	c-2.893-1.141-5.639-2.621-8.18-4.411c-1.822-1.455-3.773-2.74-5.831-3.84c-2.092-1.098-4.566-1.198-6.74-0.27
	c-3.6,1.84-4.29,7-7.64,9.23c-2.31,1.561-5.32,1.4-8.1,1.51c-2.78,0.111-6,0.781-7.32,3.211c-1.18,2.09-0.59,4.66-0.44,7.049
	c0.149,2.518-0.229,5.039-1.109,7.4c-1.55,4.141-4.7,8.221-3.58,12.5c0.729,2.811,3.25,5.141,3.1,8
	c-0.118,0.738-0.182,1.482-0.189,2.23c0.007,0.775,0.552,1.439,1.31,1.6c0.401-0.004,0.791-0.131,1.12-0.359
	c1.662-0.93,3.154-2.139,4.41-3.57c3.38-3.859,5.13-8.689,10.359-10.48C492.55,453.82,497.84,454.759,501.06,456.361z"/>
<path fill="#FFC4D0" d="M535.469,630.919l-5.398,1.471l-12.471,3.43c-2.887,2.15-6.135,3.766-9.59,4.77
	c-7.63,1.932-12.56-2.27-16.661-8.77c-1.649-2.6-0.819-4.68,1.341-6.311c5.199-3.93,18.06-5.209,22-4.689
	c2.588,0.211,5.189-0.193,7.59-1.18c1.705-0.621,3.35-1.396,4.91-2.32L535.469,630.919z"/>
<path opacity="0.1" enable-background="new    " d="M535.469,630.919l-5.398,1.471c-1.551-4.67-4.102-10.529-7.75-12.779
	c1.703-0.621,3.348-1.398,4.91-2.32L535.469,630.919z"/>
<path opacity="0.1" enable-background="new    " d="M571.991,618.06c-2.24,1.811-4.141,3.461-4.141,3.461s-26,8.148-31,18.398
	c0,0-4-20-12.5-20.25c0,0,9.15-3.59,11.789-6.66l25.631-1.34C561.77,611.669,566.77,614.39,571.991,618.06z"/>
<path fill="#EAEAF2" d="M571.6,539.669l5.75,8.5l1.75,26.5c0,0,0.5,25.5,0,26.5l0.5-1c0,0-1,10-4,11.75s-9.75,7.6-9.75,7.6
	s-26,8.15-31,18.4c0,0-4-20-12.5-20.25c0,0,12.75-5,12.5-8.25c0,0,9.75-8.75,10.5-11s5.619-2.5,5.619-2.5s1.131-15.5-1.119-18
	s-3.5-7.25-3.5-7.25L571.6,539.669z"/>
<path opacity="0.1" enable-background="new    " d="M508.01,640.56c-7.63,1.93-12.56-2.27-16.661-8.77
	c-1.649-2.6-0.819-4.68,1.341-6.311l0.779,0.311C493.47,625.791,507.219,631.75,508.01,640.56z"/>
<path fill="#FFC4D0" d="M504.85,648.55c-9,12.5-25.75-4.881-27-8.381c-0.449-1.27-2.159-2.4-4.13-3.309
	c-2.499-1.092-5.093-1.953-7.75-2.57l14.88-12.121l2.851,1.141l8.77,3.51C492.47,626.82,513.85,636.05,504.85,648.55z"/>
<path opacity="0.1" enable-background="new    " d="M483.7,623.31c-8.2,3.9-9.95,9.51-10,13.551c-2.499-1.092-5.094-1.953-7.75-2.57
	l14.88-12.121L483.7,623.31z"/>
<path opacity="0.1" enable-background="new    " d="M470.6,644.919c0,0-24-19-35.5-27.25c-1.438-1.025-2.778-2.184-4-3.459
	c3.4-2.141,5.94-3.541,5.94-3.541l29.58,1.201c0.79,1.369,1.26,2.299,1.26,2.299l16,10.5C464.6,630.919,470.6,644.919,470.6,644.919
	z"/>
<path fill="#EAEAF2" d="M438.6,545.169l-4.75,2.75c0,0-5.75,18.25-4.25,30.25c0,0-4.5,17.25-2.75,20c0,0-2.25,9.25,9.25,17.5
	s35.5,27.25,35.5,27.25s-6-14,13.25-20.25l-16-10.5c0,0-5.369-10.66-10.5-13c0,0-4-4-1.5-6.75s4.5-5.75,4.5-8.5s1-15.75,1-15.75
	l3-14L438.6,545.169z"/>
<path opacity="0.1" enable-background="new    " d="M511.35,533.291h-9.75c-0.059-0.055-0.112-0.115-0.159-0.18l0.159-0.82
	l1.25-3.24l8.381,3.24L511.35,533.291z"/>
<path fill="#BC8487" d="M514.5,516.361c0,0-8.461,7.059-12.901,0c0,0-4,11.939,0,15.939h12
	C513.6,532.3,519.889,521.419,514.5,516.361z"/>
<path opacity="0.1" enable-background="new    " d="M525.94,493.169l12.6,3.25c0,0-11.939,31-14.57,31l-15.119-7.25L525.94,493.169z
	"/>
<path opacity="0.1" enable-background="new    " d="M528.6,497.169l-20.189,21.4l-0.561,0.6l-0.73-0.43l17.65-26.92l0.43,0.711
	C526.196,494.173,527.334,495.726,528.6,497.169z"/>
<path fill="#EAEAF2" d="M524.94,492.169l12.6,3.25c0,0-11.939,31-14.57,31l-15.119-7.25L524.94,492.169z"/>
<path opacity="0.1" enable-background="new    " d="M484.52,489.73l-10.92,3.439c0,0,10.75,32.5,13.75,34.25l19.5-7.25
	L484.52,489.73z"/>
<path opacity="0.1" enable-background="new    " d="M508.411,518.57l-0.561,0.6c0,0-26.25-15.25-24.25-19.5
	c1-2.18,1.591-6.719,1.9-10.629v-0.611L508.411,518.57z"/>
<path fill="#EAEAF2" d="M485.52,488.73l-10.92,3.439c0,0,10.75,32.5,13.75,34.25l19.5-7.25L485.52,488.73z"/>
<path opacity="0.1" enable-background="new    " d="M459.51,541.82c0,0,6.58,1.17,6.46,8s2.71-8.83,2.71-8.83L459.51,541.82z"/>
<path opacity="0.1" enable-background="new    " d="M461.01,562.82c0,0-1.83,10.33,0,19.67s1.67,12.5,3.09,13
	C465.521,595.99,461.01,562.82,461.01,562.82z"/>
<path opacity="0.1" enable-background="new    " d="M545.01,561.82c-1.984,0.252-3.387,2.064-3.137,4.047
	c0.027,0.211,0.072,0.42,0.137,0.623C542.85,570.669,545.01,561.82,545.01,561.82z"/>
<path opacity="0.1" enable-background="new    " d="M430.68,596.82c0,0,21.431-1.83,25,2C459.25,602.65,430.68,596.82,430.68,596.82
	z"/>
<path opacity="0.1" enable-background="new    " d="M555.01,598.271c0,0,15.67-1.932,19.34,0.738"/>
<path opacity="0.1" enable-background="new    " d="M561.35,600.82c0,0,9.33,0.33,11.5,1.5"/>
<path opacity="0.1" enable-background="new    " d="M563.18,604.169c0,0,8.5-0.33,9.67,1"/>
<path opacity="0.1" enable-background="new    " d="M443.31,651.169c0,0,7.28,3.791,6.54,7.66
	C449.11,662.701,443.31,651.169,443.31,651.169z"/>
<path opacity="0.1" enable-background="new    " d="M437.01,653.009c0,0,11.11,14.41,9.601,19.16
	C445.1,676.919,437.01,653.009,437.01,653.009z"/>
<path opacity="0.1" enable-background="new    " d="M556.1,655.4c0,0-5.5,4.529-5.35,8.27"/>
<path opacity="0.1" enable-background="new    " d="M429.1,744.669c0,0,0,4.25,7.87,10.5"/>
<path opacity="0.1" enable-background="new    " d="M568.01,734.669c0,0-0.84,8.84-8.5,13.42"/>
<g opacity="0.1">
	<path d="M473.6,434.63c0-0.689-0.119-1.4-0.18-2.1c-0.127,1.525-0.08,3.063,0.14,4.58
		C473.628,436.285,473.642,435.457,473.6,434.63z"/>
	<path d="M472.01,462.57c0.15-2.9-2.37-5.23-3.1-8c-0.037-0.135-0.064-0.271-0.08-0.41c-0.229,1.129-0.201,2.293,0.08,3.41
		c0.59,2.291,2.37,4.25,2.93,6.471C471.89,463.521,471.99,463.05,472.01,462.57z"/>
	<path d="M541.95,450.08c-0.861,1.703-2.08,3.199-3.57,4.391c-2.33,2.15-5.219,4.459-8.309,3.76c-4.59-1-6.17-8-10.852-8.48
		c-4.68-0.479-7.789,6-12.52,5.871c-2-0.051-3.799-1.361-5.64-2.271c-3.22-1.59-8.51-2.559-12-1.359
		c-5.229,1.791-7,6.631-10.359,10.48c-1.254,1.434-2.742,2.643-4.4,3.58c-0.336,0.221-0.728,0.342-1.13,0.35
		c-0.512-0.068-0.942-0.416-1.12-0.9v0.07c-0.118,0.742-0.182,1.49-0.189,2.24c0.011,0.771,0.555,1.432,1.31,1.59
		c0.402-0.008,0.794-0.129,1.13-0.35c1.658-0.938,3.146-2.146,4.4-3.58c3.38-3.85,5.13-8.689,10.359-10.48
		c3.53-1.199,8.82-0.23,12,1.359c1.841,0.91,3.601,2.221,5.64,2.271c4.73,0.119,7.82-6.391,12.52-5.871
		c4.701,0.521,6.262,7.441,10.852,8.48c3.09,0.699,6-1.609,8.309-3.76c1.49-1.191,2.709-2.688,3.57-4.391
		c0.557-1.445,0.707-3.016,0.43-4.539C542.295,449.068,542.151,449.585,541.95,450.08z"/>
</g>
<path opacity="0.1" enable-background="new    " d="M404.77,784.3c0,0,8.171-2.52,11.561,2.26"/>
<path opacity="0.1" enable-background="new    " d="M594.04,785.3c0,0-13.529-0.791-13,2.869"/>
<ellipse opacity="0.1" fill="#38D39F" enable-background="new    " cx="864.17" cy="773.34" rx="26.93" ry="4.55"/>
<ellipse opacity="0.1" fill="#38D39F" enable-background="new    " cx="91.09" cy="810.68" rx="26.93" ry="4.55"/>
<ellipse opacity="0.1" fill="#38D39F" enable-background="new    " cx="195.26" cy="835.09" rx="26.93" ry="4.55"/>
<ellipse fill="#3E55A5" cx="805.219" cy="822.1" rx="40.211" ry="6.8"/>
<path fill="#3E55A5" d="M821.85,810.98c1.832-1.498,3.168-3.518,3.83-5.789c0.5-2.291-0.48-5-2.68-5.891
	c-2.461-0.939-5.09,0.77-7.08,2.49c-1.99,1.719-4.281,3.689-6.891,3.32c2.732-2.473,3.967-6.197,3.25-9.811
	c-0.117-0.736-0.432-1.428-0.91-2c-1.359-1.461-3.84-0.84-5.469,0.32c-5.201,3.65-6.65,10.719-6.682,17.07
	c-0.529-2.291-0.08-4.682-0.1-7c-0.02-2.32-0.65-5-2.639-6.23c-1.229-0.66-2.607-0.984-4-0.939
	c-2.342-0.092-4.941,0.148-6.541,1.859c-2,2.119-1.459,5.68,0.26,8c1.721,2.32,4.35,3.811,6.77,5.42
	c1.938,1.154,3.588,2.73,4.83,4.609c0.15,0.264,0.271,0.541,0.361,0.83h14.609C816.065,815.572,819.12,813.466,821.85,810.98z"/>
<path fill="#3E55A5" d="M196.65,723.271c0,0,5.5,7.189-2.53,18c-8.03,10.809-14.65,20-12,26.77c0,0,12.12-20.15,22-20.43
	C214,747.33,207.5,735.39,196.65,723.271z"/>
<path fill="#3E55A5" d="M196.65,723.271c0.479,0.695,0.857,1.455,1.12,2.26c9.62,11.299,14.75,21.85,5.5,22.109
	c-8.61,0.25-18.94,15.65-21.42,19.539c0.08,0.301,0.18,0.592,0.29,0.891c0,0,12.12-20.15,22-20.43
	C214.02,747.361,207.5,735.39,196.65,723.271z"/>
<path fill="#FFD037" d="M206.86,732.429c0,2.531-0.28,4.58-0.63,4.58s-0.63-2.049-0.63-4.58c0-2.529,0.35-1.34,0.7-1.34
	C206.65,731.089,206.86,729.9,206.86,732.429z"/>
<path fill="#FFD037" d="M210.37,735.451c-2.22,1.209-4.16,1.939-4.32,1.629c-0.16-0.309,1.49-1.539,3.71-2.75
	c2.22-1.209,1.35-0.33,1.51,0S212.59,734.24,210.37,735.451z"/>
<path fill="#3E55A5" d="M167.64,723.271c0,0-5.5,7.189,2.53,18c8.03,10.809,14.65,20,12,26.77c0,0-12.11-20.15-22-20.43
	C150.28,747.33,156.77,735.39,167.64,723.271z"/>
<path fill="#C06BAB" stroke="#000000" stroke-miterlimit="10" d="M167.64,723.271c-0.481,0.695-0.862,1.457-1.13,2.26
	c-9.62,11.299-14.74,21.85-5.5,22.109c8.62,0.25,18.95,15.65,21.43,19.539c-0.082,0.303-0.182,0.6-0.3,0.891
	c0,0-12.11-20.15-22-20.43C150.25,747.361,156.77,735.39,167.64,723.271z"/>
<path fill="#FFD037" d="M157.42,732.429c0,2.531,0.29,4.58,0.64,4.58s0.63-2.049,0.63-4.58c0-2.529-0.35-1.34-0.7-1.34
	C157.64,731.089,157.42,729.9,157.42,732.429z"/>
<path fill="#FFD037" d="M153.92,735.451c2.22,1.209,4.15,1.939,4.32,1.629c0.17-0.309-1.5-1.539-3.72-2.75
	c-2.22-1.209-1.34-0.33-1.51,0C152.84,734.66,151.7,734.24,153.92,735.451z"/>
<path fill="#A8A8A8" d="M159.17,767.13c0,0,15.36-0.48,20-3.77c4.64-3.291,23.63-7.24,24.77-1.951
	c1.14,5.291,23.09,26.291,5.75,26.43c-17.34,0.141-40.3-2.699-44.92-5.51S159.17,767.13,159.17,767.13z"/>
<path opacity="0.2" enable-background="new    " d="M209.99,786c-17.34,0.141-40.3-2.699-44.92-5.51
	c-3.51-2.15-4.92-9.84-5.39-13.379h-0.51c0,0,1,12.379,5.59,15.199c4.59,2.82,27.58,5.65,44.92,5.51c5,0,6.73-1.82,6.64-4.459
	C215.62,784.98,213.71,785.97,209.99,786z"/>
</svg>
